<?xml version="1.0" encoding="utf-8"?>
<!-- Generator: Adobe Illustrator 20.0.0, SVG Export Plug-In . SVG Version: 6.00 Build 0)  -->
<svg version="1.1" id="Calque_1" xmlns="http://www.w3.org/2000/svg" xmlns:xlink="http://www.w3.org/1999/xlink" x="0px" y="0px"
	 width="1000px" height="1000px" viewBox="0 0 1000 1000" enable-background="new 0 0 1000 1000" xml:space="preserve">
<radialGradient id="SVGID_1_" cx="499.5" cy="500" r="500" gradientUnits="userSpaceOnUse">
	<stop  offset="0" style="stop-color:#5774BB"/>
	<stop  offset="1" style="stop-color:#2DBCF2"/>
</radialGradient>
<path fill="url(#SVGID_1_)" d="M978.9,357.4c-153.2-34-271-162-290-320.3C630.4,13.2,566.5,0,499.5,0c-65.3,0-127.6,12.5-184.8,35.3
	C296.2,196,175.9,325.8,19.8,358.4C6.6,403.3-0.5,450.8-0.5,500c0,276.1,223.9,500,500,500s500-223.9,500-500
	C999.5,450.4,992.3,402.6,978.9,357.4z"/>
<path fill="#242940" d="M654.4,502.3l0-149.7c0-72-73.7-137-154.9-137s-154.9,65-154.9,137l0,149.7c-14.4,13-26.5,26.2-26.5,54.1
	v157.1c0,36.1,40.8,72.5,74.2,72.5h214.6c33.4,0,74.2-36.4,74.2-72.5V556.4C681,528.5,668.8,515.4,654.4,502.3z M515,635.3v54
	c0,9-7.2,16.3-15.5,16.3c-8.5,0-15.5-7.3-15.5-16.3v-54c-9-5.7-14.9-15.8-14.9-27.7c0-18,13.4-32.7,30.3-32.7
	c16.7,0,30.5,14.7,30.5,32.7C529.9,619.5,523,629.6,515,635.3z M601,484H398V362.3c0-36,42-89.1,101.5-89.1S601,326.2,601,362.3V484
	z"/>
</svg>
